<svg xmlns="http://www.w3.org/2000/svg" width="21.8" height="24.2" viewBox="0 0 21.8 24.2"><defs><style>.a{opacity:0.4;}.b{fill:#fff;stroke:#fff;stroke-width:0.2px;}</style></defs><g class="a" transform="translate(0.1 0.1)"><path class="b" d="M12,24H2.4a1.2,1.2,0,0,1-1.2-1.2V15.449A6.759,6.759,0,0,1,0,11.6V1.2A1.2,1.2,0,0,1,1.2,0h12a1.2,1.2,0,0,1,1.2,1.2H16a1.2,1.2,0,1,1,2.4,0v.4h2.4a.8.8,0,0,1,.8.8V4a.8.8,0,0,1-.8.8H18.4v.4a1.2,1.2,0,1,1-2.4,0H14.4v6.4a6.759,6.759,0,0,1-1.2,3.849V22.8A1.2,1.2,0,0,1,12,24Zm-9.6-.8H12a.4.4,0,0,0,.4-.4V16.412A6.779,6.779,0,0,1,7.6,18.4H6.8A6.779,6.779,0,0,1,2,16.412V22.8a.4.4,0,0,0,.4.4ZM20.8,4V2.4H18.4V4Zm-4,1.2a.4.4,0,0,0,.8,0v-4a.4.4,0,1,0-.8,0ZM16,4.4V2H14.4V4.4Zm-2.4.4V1.2a.4.4,0,0,0-.4-.4H1.2a.4.4,0,0,0-.4.4V11.6a6.007,6.007,0,0,0,6,6h.8a6.007,6.007,0,0,0,6-6Zm0,0" transform="translate(0 0)"/><path class="b" d="M200.648,54.8a4.386,4.386,0,0,1-4.381-4.381v-3.37a4.359,4.359,0,0,1,.148-1.11.32.32,0,0,1,.009-.036,4.375,4.375,0,0,1,8.448,0,.35.35,0,0,1,.009.036,4.361,4.361,0,0,1,.148,1.111v3.37a4.386,4.386,0,0,1-4.381,4.381Zm3.707-7.752a3.713,3.713,0,0,0-.064-.674h-.807l.1.1a.337.337,0,1,1-.477.477l-.575-.575h-1.069l1.447,1.447a.337.337,0,1,1-.476.477l-1.924-1.923H197a3.7,3.7,0,0,0-.064.674v2.022h7.415Zm-3.707-3.707A3.71,3.71,0,0,0,197.2,45.7h6.9a3.711,3.711,0,0,0-3.45-2.359Zm3.707,6.4H196.94v.674a3.707,3.707,0,1,0,7.415,0Zm0,0" transform="translate(-194.581 -40.978)"/></g></svg>