<svg xmlns="http://www.w3.org/2000/svg" width="25.5" height="24" viewBox="0 0 25.5 24"><defs><style>.a{fill:#fff;}</style></defs><g transform="translate(0 -15.062)"><g transform="translate(0 15.062)"><path class="a" d="M21.7,19.563H18.011V17.615a2.555,2.555,0,0,0-2.553-2.553H10.042a2.555,2.555,0,0,0-2.553,2.553v1.949H3.8a3.8,3.8,0,0,0-3.8,3.8v11.9a3.8,3.8,0,0,0,3.8,3.8H21.7a3.8,3.8,0,0,0,3.8-3.8v-11.9A3.8,3.8,0,0,0,21.7,19.563ZM8.984,17.615a1.06,1.06,0,0,1,1.058-1.058h5.416a1.06,1.06,0,0,1,1.058,1.058v1.949H8.984ZM1.494,35.264v-11.9a2.307,2.307,0,0,1,1.556-2.178v16.26A2.307,2.307,0,0,1,1.494,35.264Zm3.051,2.3V21.057H20.956v16.51Zm19.461-2.3a2.307,2.307,0,0,1-1.556,2.178V21.182a2.307,2.307,0,0,1,1.556,2.178Z" transform="translate(0 -15.062)"/><path class="a" d="M159.036,198.4h-1.944v-1.944a.645.645,0,0,0-.645-.645h-2.589a.645.645,0,0,0-.645.645V198.4H151.27a.645.645,0,0,0-.645.645v2.589a.645.645,0,0,0,.645.645h1.944v1.944a.645.645,0,0,0,.645.645h2.589a.645.645,0,0,0,.645-.645v-1.944h1.944a.645.645,0,0,0,.645-.645v-2.589A.645.645,0,0,0,159.036,198.4Zm-.645,2.589h-1.944a.645.645,0,0,0-.645.645v1.944h-1.3v-1.944a.645.645,0,0,0-.645-.645h-1.944v-1.3h1.944a.645.645,0,0,0,.645-.645V197.1h1.3v1.944a.645.645,0,0,0,.645.645h1.944Z" transform="translate(-142.403 -185.849)"/></g></g></svg>