<svg xmlns="http://www.w3.org/2000/svg" width="48" height="48" viewBox="0 0 48 48"><defs><style>.a{fill:#f7f0f0;}.b,.d{fill:none;}.b{stroke:#fcf9f9;stroke-width:2px;}.c{stroke:none;}</style></defs><g transform="translate(-95 -965)"><g transform="translate(175 975.001)"><path class="a" d="M23.284,12.714H8.037L12.7,7.109a1.287,1.287,0,1,0-1.98-1.646L4.3,13.177a1.53,1.53,0,0,0-.116.193.163.163,0,0,1-.09.167,1.235,1.235,0,0,0,0,.926.163.163,0,0,0,.09.167,1.53,1.53,0,0,0,.116.193l6.428,7.714A1.287,1.287,0,1,0,12.7,20.89L8.037,15.285H23.284a1.286,1.286,0,0,0,0-2.571Z" transform="translate(-71)"/></g><g class="b" transform="translate(95 965)"><circle class="c" cx="24" cy="24" r="24"/><circle class="d" cx="24" cy="24" r="23"/></g></g></svg>