<svg xmlns="http://www.w3.org/2000/svg" width="24" height="20.561" viewBox="0 0 24 20.561"><defs><style>.a{fill:#fff;opacity:0.397;}</style></defs><path class="a" d="M12,4.618,2.894,12.357a1.942,1.942,0,0,1-.228.135v7.427a.655.655,0,0,0,.667.643H20.666a.655.655,0,0,0,.667-.643V12.493a1.959,1.959,0,0,1-.219-.129ZM16,15.1a.327.327,0,0,1-.333.321H13.333v2.249A.327.327,0,0,1,13,17.99H11a.327.327,0,0,1-.333-.321V15.42H8.333A.327.327,0,0,1,8,15.1V13.171a.327.327,0,0,1,.333-.321h2.333V10.6A.327.327,0,0,1,11,10.28h2a.327.327,0,0,1,.333.321V12.85h2.333a.327.327,0,0,1,.333.321Zm7.779-5.611L13.114.413a1.707,1.707,0,0,0-2.227,0L.221,9.488a.626.626,0,0,0-.05.908l.892.957A.684.684,0,0,0,2,11.4l9.555-8.123a.686.686,0,0,1,.882,0L22,11.4a.684.684,0,0,0,.942-.049l.892-.957a.626.626,0,0,0-.051-.907Z" transform="translate(0.001 0.001)"/></svg>