<svg xmlns="http://www.w3.org/2000/svg" width="24" height="24" viewBox="0 0 24 24"><defs><style>.a{fill:rgba(255,255,255,0.4);}</style></defs><path class="a" d="M14.845,19.157Z" transform="translate(2.838 1.754)"/><path class="a" d="M8.271,8.543a4.271,4.271,0,1,1,4.271-4.271A4.276,4.276,0,0,1,8.271,8.543Zm0-7.261a2.99,2.99,0,1,0,2.99,2.99A2.993,2.993,0,0,0,8.271,1.281Z" transform="translate(0.416)"/><path class="a" d="M5.553,19.688H.641A.641.641,0,0,1,0,19.048v-2.99A4.063,4.063,0,0,1,4.058,12h7.261a4.042,4.042,0,0,1,2.926,1.252.641.641,0,1,1-.931.882,2.754,2.754,0,0,0-1.995-.851H4.058a2.78,2.78,0,0,0-2.776,2.776v2.349H5.553a.64.64,0,1,1,0,1.281Z" transform="translate(0 1.749)"/><path class="a" d="M13.7,22.834a.641.641,0,0,1-.556-.323l-1.524-2.667H9.641a.641.641,0,1,1,0-1.281H11.99a.641.641,0,0,1,.556.323l1.092,1.91,2.042-4.424A.643.643,0,0,1,16.24,16a.669.669,0,0,1,.583.334L19.2,20.7h1.969a.641.641,0,0,1,0,1.282H18.824a.64.64,0,0,1-.562-.334l-1.953-3.579-2.029,4.4a.641.641,0,0,1-.554.372H13.7Z" transform="translate(2.186 1.166)"/></svg>