<svg xmlns="http://www.w3.org/2000/svg" width="24" height="24.001" viewBox="0 0 24 24.001"><defs><style>.a{opacity:0.4;}.b{fill:#fff;}</style></defs><g class="a" transform="translate(-47.981 -47.981)"><path class="b" d="M60.149,47.982A12,12,0,1,0,71.98,59.815,12.016,12.016,0,0,0,60.149,47.982Zm7.293,18.879a.231.231,0,0,1-.354-.018,7.169,7.169,0,0,0-1.866-1.707,10.122,10.122,0,0,0-10.48,0,7.168,7.168,0,0,0-1.866,1.706.231.231,0,0,1-.354.018,10.114,10.114,0,0,1-2.693-6.706,10.154,10.154,0,1,1,20.307-.173A10.114,10.114,0,0,1,67.442,66.861Z" transform="translate(0 0)"/><path class="b" d="M191.626,144a3.514,3.514,0,0,0-3.6,3.868,3.608,3.608,0,1,0,7.208,0,3.571,3.571,0,0,0-.94-2.755A3.61,3.61,0,0,0,191.626,144Z" transform="translate(-131.645 -90.25)"/></g></svg>